<svg xmlns="http://www.w3.org/2000/svg" viewBox="0 0 100 200" width="100" height="200">
  <path d="M55 8 C58 10, 62 12, 60 18 C58 22, 54 24, 56 30 C58 36, 62 38, 60 44 C58 48, 52 50, 50 56 C48 62, 52 66, 54 72 C56 78, 58 82, 56 88 C54 94, 50 98, 48 104 C46 110, 48 114, 50 120 C52 126, 54 130, 52 136 C50 142, 46 146, 44 152 C42 158, 44 162, 46 168 C48 174, 46 178, 42 182 C38 186, 34 188, 30 186 C26 184, 28 178, 30 174 C32 170, 34 166, 32 162 C30 158, 26 156, 28 150 C30 144, 34 140, 36 134 C38 128, 36 124, 34 118 C32 112, 28 108, 30 102 C32 96, 36 92, 38 86 C40 80, 38 76, 36 70 C34 64, 30 60, 32 54 C34 48, 38 44, 40 38 C42 32, 40 28, 42 22 C44 16, 48 12, 52 8 Z"
  fill="#2e7d32" stroke="#1b5e20" stroke-width="1.5"/>
  <circle cx="44" cy="100" r="3" fill="#fff" opacity="0.8"/>
</svg>